<svg width="20" height="20" viewBox="0 0 20 20" fill="none" xmlns="http://www.w3.org/2000/svg">
<g opacity="0.7">
<path d="M9.99995 10.8039C11.3313 10.8039 12.4107 9.72454 12.4107 8.39314C12.4107 7.06174 11.3313 5.98242 9.99995 5.98242C8.66855 5.98242 7.58923 7.06174 7.58923 8.39314C7.58923 9.72454 8.66855 10.8039 9.99995 10.8039Z" stroke="white" stroke-linecap="round" stroke-linejoin="round"/>
<path d="M9.99998 1.96436C8.29502 1.96436 6.65989 2.64165 5.4543 3.84724C4.24871 5.05283 3.57141 6.68796 3.57141 8.39293C3.57141 9.91328 3.89445 10.9081 4.77677 12.009L9.99998 18.0358L15.2232 12.009C16.1055 10.9081 16.4286 9.91328 16.4286 8.39293C16.4286 6.68796 15.7513 5.05283 14.5457 3.84724C13.3401 2.64165 11.7049 1.96436 9.99998 1.96436V1.96436Z" stroke="white" stroke-linecap="round" stroke-linejoin="round"/>
</g>
</svg>
