<svg width="24" height="24" viewBox="0 0 24 24" fill="none" xmlns="http://www.w3.org/2000/svg">
<path d="M12.0001 0.592651C13.5128 0.592651 14.9635 1.19358 16.0332 2.26323C17.1028 3.33288 17.7038 4.78364 17.7038 6.29636C17.7038 7.80907 17.1028 9.25983 16.0332 10.3295C14.9635 11.3991 13.5128 12.0001 12.0001 12.0001C10.4873 12.0001 9.03658 11.3991 7.96693 10.3295C6.89728 9.25983 6.29635 7.80907 6.29635 6.29636C6.29635 4.78364 6.89728 3.33288 7.96693 2.26323C9.03658 1.19358 10.4873 0.592651 12.0001 0.592651ZM12.0001 14.8519C18.3027 14.8519 23.4075 17.4043 23.4075 20.5556V23.4075H0.592651V20.5556C0.592651 17.4043 5.69747 14.8519 12.0001 14.8519Z" fill="white"/>
</svg>
